<mxfile host="app.diagrams.net" modified="2021-01-09T10:14:10.349Z" agent="5.0 (X11; Linux x86_64) AppleWebKit/537.36 (KHTML, like Gecko) Chrome/87.0.4280.88 Safari/537.36" etag="qd4ZOZy4HhwJ-6d8eDdC" version="14.1.8" type="github">
  <diagram id="rVYyxoajfwzZvBVO0V4h" name="Page-1">
    <mxGraphModel dx="868" dy="410" grid="1" gridSize="10" guides="1" tooltips="1" connect="1" arrows="1" fold="1" page="1" pageScale="1" pageWidth="850" pageHeight="1100" math="0" shadow="0">
      <root>
        <mxCell id="0" />
        <mxCell id="1" parent="0" />
        <mxCell id="I6dQO1a8oMifDUHwkLTG-2" value="" style="whiteSpace=wrap;html=1;" vertex="1" parent="1">
          <mxGeometry x="230" y="60" width="380" height="510" as="geometry" />
        </mxCell>
        <mxCell id="I6dQO1a8oMifDUHwkLTG-6" value="Input cam feed" style="ellipse;whiteSpace=wrap;html=1;" vertex="1" parent="1">
          <mxGeometry x="290" y="90" width="100" height="70" as="geometry" />
        </mxCell>
        <mxCell id="I6dQO1a8oMifDUHwkLTG-11" value="" style="endArrow=classic;html=1;" edge="1" parent="1">
          <mxGeometry width="50" height="50" relative="1" as="geometry">
            <mxPoint x="190" y="150" as="sourcePoint" />
            <mxPoint x="280" y="135" as="targetPoint" />
          </mxGeometry>
        </mxCell>
        <mxCell id="I6dQO1a8oMifDUHwkLTG-16" value="&amp;lt;&amp;lt;extends&amp;gt;&amp;gt;" style="text;html=1;strokeColor=none;fillColor=none;align=center;verticalAlign=middle;whiteSpace=wrap;" vertex="1" parent="1">
          <mxGeometry x="270" y="160" width="40" height="20" as="geometry" />
        </mxCell>
        <mxCell id="I6dQO1a8oMifDUHwkLTG-17" value="Drowsiness Detector" style="ellipse;whiteSpace=wrap;html=1;" vertex="1" parent="1">
          <mxGeometry x="290" y="190" width="100" height="70" as="geometry" />
        </mxCell>
        <mxCell id="I6dQO1a8oMifDUHwkLTG-19" value="" style="endArrow=classic;html=1;entryX=0.5;entryY=0;entryDx=0;entryDy=0;" edge="1" parent="1" source="I6dQO1a8oMifDUHwkLTG-6" target="I6dQO1a8oMifDUHwkLTG-17">
          <mxGeometry width="50" height="50" relative="1" as="geometry">
            <mxPoint x="360" y="190" as="sourcePoint" />
            <mxPoint x="410" y="140" as="targetPoint" />
          </mxGeometry>
        </mxCell>
        <mxCell id="I6dQO1a8oMifDUHwkLTG-20" value="Extract ROI" style="ellipse;whiteSpace=wrap;html=1;" vertex="1" parent="1">
          <mxGeometry x="450" y="140" width="95" height="60" as="geometry" />
        </mxCell>
        <mxCell id="I6dQO1a8oMifDUHwkLTG-21" value="Detect &amp;amp; post drowsiness data" style="ellipse;whiteSpace=wrap;html=1;" vertex="1" parent="1">
          <mxGeometry x="450" y="240" width="98" height="60" as="geometry" />
        </mxCell>
        <mxCell id="I6dQO1a8oMifDUHwkLTG-27" value="Driver" style="shape=umlActor;verticalLabelPosition=bottom;verticalAlign=top;html=1;rounded=0;sketch=0;" vertex="1" parent="1">
          <mxGeometry x="140" y="110" width="40" height="80" as="geometry" />
        </mxCell>
        <mxCell id="I6dQO1a8oMifDUHwkLTG-30" value="&amp;lt;&amp;lt;include&amp;gt;&amp;gt;" style="text;html=1;strokeColor=none;fillColor=none;align=center;verticalAlign=middle;whiteSpace=wrap;rounded=0;sketch=0;" vertex="1" parent="1">
          <mxGeometry x="390" y="170" width="40" height="20" as="geometry" />
        </mxCell>
        <mxCell id="I6dQO1a8oMifDUHwkLTG-31" value="&amp;lt;&amp;lt;include&amp;gt;&amp;gt;" style="text;html=1;strokeColor=none;fillColor=none;align=center;verticalAlign=middle;whiteSpace=wrap;rounded=0;sketch=0;" vertex="1" parent="1">
          <mxGeometry x="520" y="210" width="40" height="20" as="geometry" />
        </mxCell>
        <mxCell id="I6dQO1a8oMifDUHwkLTG-32" value="&lt;br&gt;" style="html=1;verticalAlign=bottom;endArrow=open;dashed=1;endSize=8;exitX=1;exitY=0.5;exitDx=0;exitDy=0;entryX=0;entryY=1;entryDx=0;entryDy=0;" edge="1" parent="1" source="I6dQO1a8oMifDUHwkLTG-17" target="I6dQO1a8oMifDUHwkLTG-20">
          <mxGeometry relative="1" as="geometry">
            <mxPoint x="470" y="220" as="sourcePoint" />
            <mxPoint x="390" y="220" as="targetPoint" />
            <Array as="points" />
          </mxGeometry>
        </mxCell>
        <mxCell id="I6dQO1a8oMifDUHwkLTG-33" value="&lt;br&gt;" style="html=1;verticalAlign=bottom;endArrow=open;dashed=1;endSize=8;exitX=0.5;exitY=1;exitDx=0;exitDy=0;entryX=0.5;entryY=0;entryDx=0;entryDy=0;" edge="1" parent="1" source="I6dQO1a8oMifDUHwkLTG-20" target="I6dQO1a8oMifDUHwkLTG-21">
          <mxGeometry relative="1" as="geometry">
            <mxPoint x="400" y="235" as="sourcePoint" />
            <mxPoint x="474.0906075556719" y="201.32514411340082" as="targetPoint" />
            <Array as="points" />
          </mxGeometry>
        </mxCell>
        <mxCell id="I6dQO1a8oMifDUHwkLTG-35" value="Start Service" style="ellipse;whiteSpace=wrap;html=1;rounded=0;sketch=0;" vertex="1" parent="1">
          <mxGeometry x="310" y="365" width="90" height="50" as="geometry" />
        </mxCell>
        <mxCell id="I6dQO1a8oMifDUHwkLTG-36" value="Users" style="shape=umlActor;verticalLabelPosition=bottom;verticalAlign=top;html=1;rounded=0;sketch=0;" vertex="1" parent="1">
          <mxGeometry x="150" y="390" width="40" height="80" as="geometry" />
        </mxCell>
        <mxCell id="I6dQO1a8oMifDUHwkLTG-42" value="" style="endArrow=classic;html=1;" edge="1" parent="1">
          <mxGeometry width="50" height="50" relative="1" as="geometry">
            <mxPoint x="200" y="440" as="sourcePoint" />
            <mxPoint x="300" y="400" as="targetPoint" />
          </mxGeometry>
        </mxCell>
        <mxCell id="I6dQO1a8oMifDUHwkLTG-43" value="Drowsiness status notification" style="ellipse;whiteSpace=wrap;html=1;rounded=0;sketch=0;" vertex="1" parent="1">
          <mxGeometry x="310" y="460" width="90" height="50" as="geometry" />
        </mxCell>
        <mxCell id="I6dQO1a8oMifDUHwkLTG-47" value="Drowsiness status GET method" style="ellipse;whiteSpace=wrap;html=1;rounded=0;sketch=0;" vertex="1" parent="1">
          <mxGeometry x="470" y="390" width="90" height="50" as="geometry" />
        </mxCell>
        <mxCell id="I6dQO1a8oMifDUHwkLTG-50" value="" style="endArrow=classic;html=1;entryX=0;entryY=0.5;entryDx=0;entryDy=0;" edge="1" parent="1" target="I6dQO1a8oMifDUHwkLTG-43">
          <mxGeometry width="50" height="50" relative="1" as="geometry">
            <mxPoint x="200" y="460" as="sourcePoint" />
            <mxPoint x="310" y="461" as="targetPoint" />
          </mxGeometry>
        </mxCell>
        <mxCell id="I6dQO1a8oMifDUHwkLTG-53" value="&lt;br&gt;" style="html=1;verticalAlign=bottom;endArrow=open;dashed=1;endSize=8;exitX=0;exitY=0.5;exitDx=0;exitDy=0;" edge="1" parent="1" source="I6dQO1a8oMifDUHwkLTG-47" target="I6dQO1a8oMifDUHwkLTG-35">
          <mxGeometry relative="1" as="geometry">
            <mxPoint x="670" y="400" as="sourcePoint" />
            <mxPoint x="744.0906075556677" y="366.32514411340355" as="targetPoint" />
            <Array as="points" />
          </mxGeometry>
        </mxCell>
        <mxCell id="I6dQO1a8oMifDUHwkLTG-54" value="&amp;lt;&amp;lt;extends&amp;gt;&amp;gt;" style="text;html=1;strokeColor=none;fillColor=none;align=center;verticalAlign=middle;whiteSpace=wrap;" vertex="1" parent="1">
          <mxGeometry x="425" y="380" width="40" height="20" as="geometry" />
        </mxCell>
        <mxCell id="I6dQO1a8oMifDUHwkLTG-56" value="" style="endArrow=classic;html=1;" edge="1" parent="1">
          <mxGeometry width="50" height="50" relative="1" as="geometry">
            <mxPoint x="190" y="170" as="sourcePoint" />
            <mxPoint x="300" y="460" as="targetPoint" />
          </mxGeometry>
        </mxCell>
      </root>
    </mxGraphModel>
  </diagram>
</mxfile>
